<svg width="855" height="95" viewBox="0 0 855 95" fill="none" xmlns="http://www.w3.org/2000/svg">
<g clip-path="url(#clip0_74_2)">
<rect x="0.5" y="10.5" width="41" height="34" stroke="url(#paint0_linear_74_2)"/>
<rect x="0.5" y="54.5" width="72" height="34" stroke="url(#paint1_linear_74_2)"/>
<rect x="195.5" y="10.5" width="651" height="34" stroke="url(#paint2_linear_74_2)"/>
<rect x="170.5" y="54.5" width="676" height="34" stroke="url(#paint3_linear_74_2)"/>
<path d="M50.968 11.4H59.032C61.656 11.4 63.624 12.104 64.936 13.512C66.248 14.92 66.904 16.984 66.904 19.704V36.696C66.904 39.416 66.248 41.48 64.936 42.888C63.624 44.296 61.656 45 59.032 45H50.968V11.4ZM58.936 40.2C59.8 40.2 60.456 39.944 60.904 39.432C61.384 38.92 61.624 38.088 61.624 36.936V19.464C61.624 18.312 61.384 17.48 60.904 16.968C60.456 16.456 59.8 16.2 58.936 16.2H56.248V40.2H58.936ZM78.1 45.48C75.508 45.48 73.524 44.744 72.148 43.272C70.772 41.8 70.084 39.72 70.084 37.032V19.368C70.084 16.68 70.772 14.6 72.148 13.128C73.524 11.656 75.508 10.92 78.1 10.92C80.692 10.92 82.676 11.656 84.052 13.128C85.428 14.6 86.116 16.68 86.116 19.368V37.032C86.116 39.72 85.428 41.8 84.052 43.272C82.676 44.744 80.692 45.48 78.1 45.48ZM78.1 40.68C79.924 40.68 80.836 39.576 80.836 37.368V19.032C80.836 16.824 79.924 15.72 78.1 15.72C76.276 15.72 75.364 16.824 75.364 19.032V37.368C75.364 39.576 76.276 40.68 78.1 40.68ZM89.6868 11.4H96.3108L101.447 31.512H101.543V11.4H106.247V45H100.823L94.4868 20.472H94.3908V45H89.6868V11.4ZM110.171 11.4H115.451V45H110.171V11.4ZM118.35 40.296L128.142 16.2H118.83V11.4H133.806V16.104L124.014 40.2H133.806V45H118.35V40.296ZM136.796 11.4H151.196V16.2H142.076V25.08H149.324V29.88H142.076V40.2H151.196V45H136.796V11.4ZM158.362 16.2H152.842V11.4H169.162V16.2H163.642V45H158.362V16.2ZM171.718 11.4H176.998V45H171.718V11.4Z" fill="url(#paint4_linear_74_2)"/>
<path d="M90.832 88.48C88.272 88.48 86.336 87.76 85.024 86.32C83.712 84.848 83.056 82.752 83.056 80.032V78.112H88.048V80.416C88.048 82.592 88.96 83.68 90.784 83.68C91.68 83.68 92.352 83.424 92.8 82.912C93.28 82.368 93.52 81.504 93.52 80.32C93.52 78.912 93.2 77.68 92.56 76.624C91.92 75.536 90.736 74.24 89.008 72.736C86.832 70.816 85.312 69.088 84.448 67.552C83.584 65.984 83.152 64.224 83.152 62.272C83.152 59.616 83.824 57.568 85.168 56.128C86.512 54.656 88.464 53.92 91.024 53.92C93.552 53.92 95.456 54.656 96.736 56.128C98.048 57.568 98.704 59.648 98.704 62.368V63.76H93.712V62.032C93.712 60.88 93.488 60.048 93.04 59.536C92.592 58.992 91.936 58.72 91.072 58.72C89.312 58.72 88.432 59.792 88.432 61.936C88.432 63.152 88.752 64.288 89.392 65.344C90.064 66.4 91.264 67.68 92.992 69.184C95.2 71.104 96.72 72.848 97.552 74.416C98.384 75.984 98.8 77.824 98.8 79.936C98.8 82.688 98.112 84.8 96.736 86.272C95.392 87.744 93.424 88.48 90.832 88.48ZM101.827 54.4H107.107V88H101.827V54.4ZM111.062 54.4H116.342V83.2H125.03V88H111.062V54.4ZM123.967 54.4H129.295L132.751 80.464H132.847L136.303 54.4H141.151L136.063 88H129.055L123.967 54.4ZM146.407 54.4H153.559L159.031 88H153.751L152.791 81.328V81.424H146.791L145.831 88H140.935L146.407 54.4ZM152.167 76.864L149.815 60.256H149.719L147.415 76.864H152.167Z" fill="url(#paint5_linear_74_2)"/>
</g>
<defs>
<linearGradient id="paint0_linear_74_2" x1="0" y1="27.5" x2="42" y2="27.5" gradientUnits="userSpaceOnUse">
<stop stop-color="#EA4A4A"/>
<stop offset="1" stop-color="#633BBC"/>
</linearGradient>
<linearGradient id="paint1_linear_74_2" x1="0" y1="71.5" x2="73" y2="71.5" gradientUnits="userSpaceOnUse">
<stop stop-color="#EA4A4A"/>
<stop offset="1" stop-color="#633BBC"/>
</linearGradient>
<linearGradient id="paint2_linear_74_2" x1="195" y1="27.5" x2="847" y2="27.5" gradientUnits="userSpaceOnUse">
<stop stop-color="#EA4A4A"/>
<stop offset="1" stop-color="#633BBC"/>
</linearGradient>
<linearGradient id="paint3_linear_74_2" x1="170" y1="71.5" x2="847" y2="71.5" gradientUnits="userSpaceOnUse">
<stop stop-color="#EA4A4A"/>
<stop offset="1" stop-color="#633BBC"/>
</linearGradient>
<linearGradient id="paint4_linear_74_2" x1="36.5" y1="27" x2="161.5" y2="37" gradientUnits="userSpaceOnUse">
<stop stop-color="#633BBC"/>
<stop offset="1" stop-color="#EA4A4A"/>
</linearGradient>
<linearGradient id="paint5_linear_74_2" x1="74.5" y1="70" x2="149.806" y2="73.6147" gradientUnits="userSpaceOnUse">
<stop stop-color="#633BBC"/>
<stop offset="1" stop-color="#EA4A4A"/>
</linearGradient>
<clipPath id="clip0_74_2">
<rect width="855" height="95" fill="white"/>
</clipPath>
</defs>
</svg>
