<svg width="847" height="142" viewBox="0 0 847 142" fill="none" xmlns="http://www.w3.org/2000/svg">
<rect y="34" width="63" height="35" fill="#EA4A4A"/>
<rect y="79" width="138" height="35" fill="#EA4A4A"/>
<rect x="223" y="34" width="624" height="35" fill="#EA4A4A"/>
<rect x="233" y="79" width="614" height="35" fill="#EA4A4A"/>
<path d="M75.968 34.4H84.032C86.656 34.4 88.624 35.104 89.936 36.512C91.248 37.92 91.904 39.984 91.904 42.704V59.696C91.904 62.416 91.248 64.48 89.936 65.888C88.624 67.296 86.656 68 84.032 68H75.968V34.4ZM83.936 63.2C84.8 63.2 85.456 62.944 85.904 62.432C86.384 61.92 86.624 61.088 86.624 59.936V42.464C86.624 41.312 86.384 40.48 85.904 39.968C85.456 39.456 84.8 39.2 83.936 39.2H81.248V63.2H83.936ZM103.1 68.48C100.508 68.48 98.524 67.744 97.148 66.272C95.772 64.8 95.084 62.72 95.084 60.032V42.368C95.084 39.68 95.772 37.6 97.148 36.128C98.524 34.656 100.508 33.92 103.1 33.92C105.692 33.92 107.676 34.656 109.052 36.128C110.428 37.6 111.116 39.68 111.116 42.368V60.032C111.116 62.72 110.428 64.8 109.052 66.272C107.676 67.744 105.692 68.48 103.1 68.48ZM103.1 63.68C104.924 63.68 105.836 62.576 105.836 60.368V42.032C105.836 39.824 104.924 38.72 103.1 38.72C101.276 38.72 100.364 39.824 100.364 42.032V60.368C100.364 62.576 101.276 63.68 103.1 63.68ZM114.687 34.4H121.311L126.447 54.512H126.543V34.4H131.247V68H125.823L119.487 43.472H119.391V68H114.687V34.4ZM135.171 34.4H140.451V68H135.171V34.4ZM143.35 63.296L153.142 39.2H143.83V34.4H158.806V39.104L149.014 63.2H158.806V68H143.35V63.296ZM161.796 34.4H176.196V39.2H167.076V48.08H174.324V52.88H167.076V63.2H176.196V68H161.796V34.4ZM183.362 39.2H177.842V34.4H194.162V39.2H188.642V68H183.362V39.2ZM196.718 34.4H201.998V68H196.718V34.4Z" fill="#EA4A4A"/>
<path d="M155.832 113.48C153.272 113.48 151.336 112.76 150.024 111.32C148.712 109.848 148.056 107.752 148.056 105.032V103.112H153.048V105.416C153.048 107.592 153.96 108.68 155.784 108.68C156.68 108.68 157.352 108.424 157.8 107.912C158.28 107.368 158.52 106.504 158.52 105.32C158.52 103.912 158.2 102.68 157.56 101.624C156.92 100.536 155.736 99.24 154.008 97.736C151.832 95.816 150.312 94.088 149.448 92.552C148.584 90.984 148.152 89.224 148.152 87.272C148.152 84.616 148.824 82.568 150.168 81.128C151.512 79.656 153.464 78.92 156.024 78.92C158.552 78.92 160.456 79.656 161.736 81.128C163.048 82.568 163.704 84.648 163.704 87.368V88.76H158.712V87.032C158.712 85.88 158.488 85.048 158.04 84.536C157.592 83.992 156.936 83.72 156.072 83.72C154.312 83.72 153.432 84.792 153.432 86.936C153.432 88.152 153.752 89.288 154.392 90.344C155.064 91.4 156.264 92.68 157.992 94.184C160.2 96.104 161.72 97.848 162.552 99.416C163.384 100.984 163.8 102.824 163.8 104.936C163.8 107.688 163.112 109.8 161.736 111.272C160.392 112.744 158.424 113.48 155.832 113.48ZM166.827 79.4H172.107V113H166.827V79.4ZM176.062 79.4H181.342V108.2H190.03V113H176.062V79.4ZM188.967 79.4H194.295L197.751 105.464H197.847L201.303 79.4H206.151L201.063 113H194.055L188.967 79.4ZM211.407 79.4H218.559L224.031 113H218.751L217.791 106.328V106.424H211.791L210.831 113H205.935L211.407 79.4ZM217.167 101.864L214.815 85.256H214.719L212.415 101.864H217.167Z" fill="#EA4A4A"/>
</svg>
